<?xml version="1.0" encoding="UTF-8"?>
<!DOCTYPE svg PUBLIC "-//W3C//DTD SVG 1.1//EN" "http://www.w3.org/Graphics/SVG/1.1/DTD/svg11.dtd">
<svg xmlns="http://www.w3.org/2000/svg" version="1.1" width="500px" height="500px" style="shape-rendering:geometricPrecision; text-rendering:geometricPrecision; image-rendering:optimizeQuality; fill-rule:evenodd; clip-rule:evenodd" xmlns:xlink="http://www.w3.org/1999/xlink">
<g><path style="opacity:1" fill="#bf98ca" d="M 287.5,105.5 C 284.784,104.799 282.45,103.465 280.5,101.5C 280.389,100.883 280.056,100.383 279.5,100C 234.501,99.5 189.501,99.3333 144.5,99.5C 144.918,98.7784 145.584,98.2784 146.5,98C 190.533,97.9334 234.533,97.9334 278.5,98C 282.589,99.2612 285.589,101.761 287.5,105.5 Z"/></g>
<g><path style="opacity:1" fill="#f5d5f6" d="M 277.5,104.5 C 278.167,104.5 278.833,104.5 279.5,104.5C 279.5,119.167 279.5,133.833 279.5,148.5C 278.818,133.931 278.151,119.265 277.5,104.5 Z"/></g>
<g><path style="opacity:1" fill="#9641be" d="M 143.5,100.5 C 143.5,100.167 143.5,99.8333 143.5,99.5C 143.833,99.5 144.167,99.5 144.5,99.5C 189.501,99.3333 234.501,99.5 279.5,100C 280.056,100.383 280.389,100.883 280.5,101.5C 258.525,103.489 236.192,104.156 213.5,103.5C 212.005,103.415 211.005,104.081 210.5,105.5C 211.448,110.435 211.781,115.435 211.5,120.5C 210.196,121.987 209.03,123.654 208,125.5C 205.959,124.577 203.792,124.244 201.5,124.5C 202.213,121.763 202.213,119.096 201.5,116.5C 202.603,116.002 203.603,115.669 204.5,115.5C 202.024,114.191 200.024,112.358 198.5,110C 195.178,109.941 192.344,108.774 190,106.5C 187.851,108.724 188.351,110.224 191.5,111C 189.305,112.373 186.971,112.706 184.5,112C 186.481,111.395 186.815,110.395 185.5,109C 181.079,107.984 176.745,106.651 172.5,105C 175.327,104.299 177.994,103.299 180.5,102C 179.5,101.667 178.5,101.333 177.5,101C 168.173,100.5 158.839,100.334 149.5,100.5C 147.5,100.5 145.5,100.5 143.5,100.5 Z"/></g>
<g><path style="opacity:1" fill="#c063d2" d="M 280.5,101.5 C 282.45,103.465 284.784,104.799 287.5,105.5C 289.089,108.742 289.923,112.075 290,115.5C 290.562,110.903 291.728,110.57 293.5,114.5C 294.325,115.386 295.325,115.719 296.5,115.5C 296.297,117.39 296.963,118.89 298.5,120C 296.996,121.788 295.329,122.288 293.5,121.5C 293.002,122.603 292.669,123.603 292.5,124.5C 290.051,124.02 287.885,123.02 286,121.5C 285.566,125.223 284.732,125.39 283.5,122C 283.645,121.228 283.978,120.561 284.5,120C 282.892,119.342 281.725,119.842 281,121.5C 280.827,115.652 280.327,109.985 279.5,104.5C 278.833,104.5 278.167,104.5 277.5,104.5C 256.167,104.5 234.833,104.5 213.5,104.5C 213.5,104.167 213.5,103.833 213.5,103.5C 236.192,104.156 258.525,103.489 280.5,101.5 Z"/></g>
<g><path style="opacity:1" fill="#8437b5" d="M 149.5,100.5 C 158.839,100.334 168.173,100.5 177.5,101C 178.5,101.333 179.5,101.667 180.5,102C 177.994,103.299 175.327,104.299 172.5,105C 176.745,106.651 181.079,107.984 185.5,109C 186.815,110.395 186.481,111.395 184.5,112C 186.971,112.706 189.305,112.373 191.5,111C 188.351,110.224 187.851,108.724 190,106.5C 192.344,108.774 195.178,109.941 198.5,110C 200.024,112.358 202.024,114.191 204.5,115.5C 203.603,115.669 202.603,116.002 201.5,116.5C 202.213,119.096 202.213,121.763 201.5,124.5C 203.792,124.244 205.959,124.577 208,125.5C 209.03,123.654 210.196,121.987 211.5,120.5C 211.5,122.833 211.5,125.167 211.5,127.5C 210.097,130.909 209.43,134.575 209.5,138.5C 208.691,136.708 208.191,134.708 208,132.5C 207.503,134.81 207.337,137.143 207.5,139.5C 206.07,139.579 204.736,139.246 203.5,138.5C 201.696,136.02 199.363,134.353 196.5,133.5C 196.579,132.07 196.246,130.736 195.5,129.5C 196.605,128.108 197.939,126.941 199.5,126C 197.1,125.814 194.766,125.314 192.5,124.5C 193.347,123.155 194.513,122.155 196,121.5C 196.78,119.613 196.613,117.946 195.5,116.5C 190.684,115.674 185.684,115.174 180.5,115C 179.864,113.644 178.697,112.478 177,111.5C 176.5,111.667 176,111.833 175.5,112C 178.082,114.892 177.916,117.725 175,120.5C 174.02,119.019 172.853,117.685 171.5,116.5C 167.5,115.833 163.5,115.167 159.5,114.5C 160.5,113.667 161.5,112.833 162.5,112C 161.128,111.598 159.795,111.098 158.5,110.5C 156.154,113.283 154.487,115.95 153.5,118.5C 152.392,114.93 151.058,111.43 149.5,108C 150.5,107.667 151.5,107.333 152.5,107C 149.833,105.333 147.167,103.667 144.5,102C 146.382,101.802 148.048,101.302 149.5,100.5 Z"/></g>
<g><path style="opacity:1" fill="#672b9e" d="M 143.5,100.5 C 145.5,100.5 147.5,100.5 149.5,100.5C 148.048,101.302 146.382,101.802 144.5,102C 147.167,103.667 149.833,105.333 152.5,107C 151.5,107.333 150.5,107.667 149.5,108C 151.058,111.43 152.392,114.93 153.5,118.5C 152.909,119.151 152.243,119.818 151.5,120.5C 153.611,121.949 155.944,122.949 158.5,123.5C 159.086,123.291 159.586,122.957 160,122.5C 161.77,125.937 163.936,129.103 166.5,132C 166.095,132.945 165.428,133.612 164.5,134C 166.229,135.789 166.896,137.956 166.5,140.5C 164.608,143.037 162.608,144.703 160.5,145.5C 157.828,145.172 156.161,143.672 155.5,141C 154.258,140.689 153.258,141.189 152.5,142.5C 149.703,140.779 147.369,138.613 145.5,136C 144.552,135.517 143.552,135.351 142.5,135.5C 141.539,124.181 141.372,112.848 142,101.5C 142.383,100.944 142.883,100.611 143.5,100.5 Z"/></g>
<g><path style="opacity:1" fill="#ac56cb" d="M 279.5,104.5 C 280.327,109.985 280.827,115.652 281,121.5C 281.725,119.842 282.892,119.342 284.5,120C 283.978,120.561 283.645,121.228 283.5,122C 284.732,125.39 285.566,125.223 286,121.5C 287.885,123.02 290.051,124.02 292.5,124.5C 292.669,123.603 293.002,122.603 293.5,121.5C 295.329,122.288 296.996,121.788 298.5,120C 296.963,118.89 296.297,117.39 296.5,115.5C 295.325,115.719 294.325,115.386 293.5,114.5C 291.728,110.57 290.562,110.903 290,115.5C 289.923,112.075 289.089,108.742 287.5,105.5C 302.446,119.113 316.779,133.446 330.5,148.5C 328.958,147.699 327.292,147.366 325.5,147.5C 325.5,146.5 325.5,145.5 325.5,144.5C 324.5,144.5 323.5,144.5 322.5,144.5C 321.206,142.672 320.206,140.672 319.5,138.5C 317.774,138.815 316.107,138.981 314.5,139C 314.906,137.197 314.406,135.364 313,133.5C 311.817,132.269 310.651,132.269 309.5,133.5C 309.481,135.106 309.647,136.772 310,138.5C 307.599,137.033 305.099,136.199 302.5,136C 305.728,141.571 304.728,142.738 299.5,139.5C 295.819,140.136 292.153,140.469 288.5,140.5C 287.374,138.207 286.041,136.04 284.5,134C 285.833,132.667 285.833,131.333 284.5,130C 285.167,129.667 285.833,129.333 286.5,129C 284.82,128.966 283.32,128.799 282,128.5C 280.551,133.981 280.051,139.648 280.5,145.5C 280.5,146.833 280.5,148.167 280.5,149.5C 279.833,149.5 279.5,149.167 279.5,148.5C 279.5,133.833 279.5,119.167 279.5,104.5 Z"/></g>
<g><path style="opacity:1" fill="#9f49c6" d="M 322.5,144.5 C 323.171,145.847 323.171,147.014 322.5,148C 320.645,148.422 318.811,148.922 317,149.5C 312.999,149.329 308.999,148.996 305,148.5C 301.255,149.297 297.421,149.797 293.5,150C 291.667,150.5 290.5,151.667 290,153.5C 286.618,150.939 283.451,148.273 280.5,145.5C 280.051,139.648 280.551,133.981 282,128.5C 283.32,128.799 284.82,128.966 286.5,129C 285.833,129.333 285.167,129.667 284.5,130C 285.833,131.333 285.833,132.667 284.5,134C 286.041,136.04 287.374,138.207 288.5,140.5C 292.153,140.469 295.819,140.136 299.5,139.5C 304.728,142.738 305.728,141.571 302.5,136C 305.099,136.199 307.599,137.033 310,138.5C 309.647,136.772 309.481,135.106 309.5,133.5C 310.651,132.269 311.817,132.269 313,133.5C 314.406,135.364 314.906,137.197 314.5,139C 316.107,138.981 317.774,138.815 319.5,138.5C 320.206,140.672 321.206,142.672 322.5,144.5 Z"/></g>
<g><path style="opacity:1" fill="#8f41b4" d="M 322.5,144.5 C 323.5,144.5 324.5,144.5 325.5,144.5C 325.5,145.5 325.5,146.5 325.5,147.5C 327.292,147.366 328.958,147.699 330.5,148.5C 331.167,148.5 331.5,148.833 331.5,149.5C 331.666,156.508 331.5,163.508 331,170.5C 330.077,171.759 329.243,173.092 328.5,174.5C 327.833,168.346 327.167,162.346 326.5,156.5C 326.167,156.5 325.833,156.5 325.5,156.5C 313.162,156.667 300.829,156.5 288.5,156C 284.434,155.424 281.767,153.257 280.5,149.5C 280.5,148.167 280.5,146.833 280.5,145.5C 283.451,148.273 286.618,150.939 290,153.5C 290.5,151.667 291.667,150.5 293.5,150C 297.421,149.797 301.255,149.297 305,148.5C 308.999,148.996 312.999,149.329 317,149.5C 318.811,148.922 320.645,148.422 322.5,148C 323.171,147.014 323.171,145.847 322.5,144.5 Z"/></g>
<g><path style="opacity:1" fill="#f5d6f8" d="M 325.5,156.5 C 325.833,156.5 326.167,156.5 326.5,156.5C 325.877,163.255 326.544,169.588 328.5,175.5C 327.791,176.404 326.791,176.737 325.5,176.5C 325.5,169.833 325.5,163.167 325.5,156.5 Z"/></g>
<g><path style="opacity:1" fill="#8c5aa6" d="M 331.5,149.5 C 332.222,149.918 332.722,150.584 333,151.5C 333.831,158.856 333.665,166.189 332.5,173.5C 331.378,174.63 330.044,175.297 328.5,175.5C 326.544,169.588 325.877,163.255 326.5,156.5C 327.167,162.346 327.833,168.346 328.5,174.5C 329.243,173.092 330.077,171.759 331,170.5C 331.5,163.508 331.666,156.508 331.5,149.5 Z"/></g>
<g><path style="opacity:1" fill="#70429d" d="M 143.5,99.5 C 143.5,99.8333 143.5,100.167 143.5,100.5C 142.883,100.611 142.383,100.944 142,101.5C 141.372,112.848 141.539,124.181 142.5,135.5C 142.5,146.167 142.5,156.833 142.5,167.5C 144.857,167.337 147.19,167.503 149.5,168C 150.687,169.604 152.687,170.771 155.5,171.5C 156.833,171.167 158.167,170.833 159.5,170.5C 170.119,171.83 180.785,172.497 191.5,172.5C 196.844,172.666 202.177,172.499 207.5,172C 208.354,170.978 209.354,170.145 210.5,169.5C 211.499,155.516 211.833,141.516 211.5,127.5C 211.5,125.167 211.5,122.833 211.5,120.5C 211.781,115.435 211.448,110.435 210.5,105.5C 211.005,104.081 212.005,103.415 213.5,103.5C 213.5,103.833 213.5,104.167 213.5,104.5C 213.667,125.836 213.5,147.169 213,168.5C 212.117,171.887 209.951,173.554 206.5,173.5C 186.167,173.5 165.833,173.5 145.5,173.5C 145.5,181.5 145.5,189.5 145.5,197.5C 143.5,197.5 141.5,197.5 139.5,197.5C 139.333,166.165 139.5,134.832 140,103.5C 140.057,101.09 141.224,99.7565 143.5,99.5 Z M 170.5,117.5 C 172.077,121.654 174.41,125.321 177.5,128.5C 179.869,124.81 182.202,121.143 184.5,117.5C 188.329,116.931 191.663,117.598 194.5,119.5C 190.464,124.881 186.797,130.548 183.5,136.5C 187.112,142.883 191.112,149.05 195.5,155C 191.848,155.499 188.182,155.665 184.5,155.5C 182.202,151.857 179.869,148.19 177.5,144.5C 174.759,146.975 172.759,149.975 171.5,153.5C 167.813,155.343 163.813,156.01 159.5,155.5C 159.062,155.565 158.728,155.399 158.5,155C 162.71,148.746 167.044,142.579 171.5,136.5C 171.145,135.478 170.478,134.811 169.5,134.5C 166.996,129.485 163.996,124.819 160.5,120.5C 160.586,119.504 160.252,118.671 159.5,118C 163.152,117.501 166.818,117.335 170.5,117.5 Z"/></g>
<g><path style="opacity:1" fill="#592494" d="M 142.5,135.5 C 143.552,135.351 144.552,135.517 145.5,136C 147.369,138.613 149.703,140.779 152.5,142.5C 153.258,141.189 154.258,140.689 155.5,141C 156.161,143.672 157.828,145.172 160.5,145.5C 161.32,149.158 159.987,151.491 156.5,152.5C 157.711,153.72 157.711,154.887 156.5,156C 157.448,156.483 158.448,156.649 159.5,156.5C 163.182,156.665 166.848,156.499 170.5,156C 171.252,155.329 171.586,154.496 171.5,153.5C 172.759,149.975 174.759,146.975 177.5,144.5C 179.869,148.19 182.202,151.857 184.5,155.5C 188.833,156.167 193.167,156.833 197.5,157.5C 192.433,158.824 187.266,158.824 182,157.5C 181.342,159.108 181.842,160.275 183.5,161C 178.425,159.816 173.758,160.816 169.5,164C 171.433,164.251 173.266,164.751 175,165.5C 177.129,164.137 177.629,164.471 176.5,166.5C 178.959,167.643 181.293,167.31 183.5,165.5C 194.032,168.851 193.365,170.351 181.5,170C 185.311,169.917 188.645,170.75 191.5,172.5C 180.785,172.497 170.119,171.83 159.5,170.5C 158.167,170.833 156.833,171.167 155.5,171.5C 152.687,170.771 150.687,169.604 149.5,168C 147.19,167.503 144.857,167.337 142.5,167.5C 142.5,156.833 142.5,146.167 142.5,135.5 Z"/></g>
<g><path style="opacity:1" fill="#702ca4" d="M 211.5,127.5 C 211.833,141.516 211.499,155.516 210.5,169.5C 209.354,170.145 208.354,170.978 207.5,172C 202.177,172.499 196.844,172.666 191.5,172.5C 188.645,170.75 185.311,169.917 181.5,170C 193.365,170.351 194.032,168.851 183.5,165.5C 181.293,167.31 178.959,167.643 176.5,166.5C 177.629,164.471 177.129,164.137 175,165.5C 173.266,164.751 171.433,164.251 169.5,164C 173.758,160.816 178.425,159.816 183.5,161C 181.842,160.275 181.342,159.108 182,157.5C 187.266,158.824 192.433,158.824 197.5,157.5C 198.268,158.263 198.768,159.263 199,160.5C 201.658,156.843 204.658,153.509 208,150.5C 208.333,151.5 208.667,152.5 209,153.5C 209.668,150.51 208.502,148.51 205.5,147.5C 204.571,146.311 204.238,144.978 204.5,143.5C 205.5,143.5 206.5,143.5 207.5,143.5C 207.202,146.336 207.869,146.836 209.5,145C 208.586,143.1 208.586,140.934 209.5,138.5C 209.43,134.575 210.097,130.909 211.5,127.5 Z"/></g>
<g><path style="opacity:1" fill="#eac4f1" d="M 171.5,153.5 C 171.586,154.496 171.252,155.329 170.5,156C 166.848,156.499 163.182,156.665 159.5,156.5C 159.5,156.167 159.5,155.833 159.5,155.5C 163.813,156.01 167.813,155.343 171.5,153.5 Z"/></g>
<g><path style="opacity:1" fill="#8057a6" d="M 169.5,134.5 C 170.478,134.811 171.145,135.478 171.5,136.5C 167.044,142.579 162.71,148.746 158.5,155C 158.728,155.399 159.062,155.565 159.5,155.5C 159.5,155.833 159.5,156.167 159.5,156.5C 158.448,156.649 157.448,156.483 156.5,156C 157.711,154.887 157.711,153.72 156.5,152.5C 159.987,151.491 161.32,149.158 160.5,145.5C 162.608,144.703 164.608,143.037 166.5,140.5C 167.971,138.784 168.971,136.784 169.5,134.5 Z"/></g>
<g><path style="opacity:1" fill="#7f3bae" d="M 195.5,116.5 C 196.613,117.946 196.78,119.613 196,121.5C 194.513,122.155 193.347,123.155 192.5,124.5C 194.766,125.314 197.1,125.814 199.5,126C 197.939,126.941 196.605,128.108 195.5,129.5C 196.246,130.736 196.579,132.07 196.5,133.5C 199.363,134.353 201.696,136.02 203.5,138.5C 204.736,139.246 206.07,139.579 207.5,139.5C 207.337,137.143 207.503,134.81 208,132.5C 208.191,134.708 208.691,136.708 209.5,138.5C 208.586,140.934 208.586,143.1 209.5,145C 207.869,146.836 207.202,146.336 207.5,143.5C 206.5,143.5 205.5,143.5 204.5,143.5C 204.238,144.978 204.571,146.311 205.5,147.5C 208.502,148.51 209.668,150.51 209,153.5C 208.667,152.5 208.333,151.5 208,150.5C 204.658,153.509 201.658,156.843 199,160.5C 198.768,159.263 198.268,158.263 197.5,157.5C 193.167,156.833 188.833,156.167 184.5,155.5C 188.182,155.665 191.848,155.499 195.5,155C 191.112,149.05 187.112,142.883 183.5,136.5C 186.797,130.548 190.464,124.881 194.5,119.5C 195.404,118.791 195.737,117.791 195.5,116.5 Z"/></g>
<g><path style="opacity:1" fill="#7d3fa6" d="M 195.5,116.5 C 191.629,116.185 187.962,116.518 184.5,117.5C 182.202,121.143 179.869,124.81 177.5,128.5C 174.41,125.321 172.077,121.654 170.5,117.5C 166.354,116.353 162.02,116.186 157.5,117C 158.163,118.518 159.163,119.685 160.5,120.5C 163.996,124.819 166.996,129.485 169.5,134.5C 168.971,136.784 167.971,138.784 166.5,140.5C 166.896,137.956 166.229,135.789 164.5,134C 165.428,133.612 166.095,132.945 166.5,132C 163.936,129.103 161.77,125.937 160,122.5C 159.586,122.957 159.086,123.291 158.5,123.5C 155.944,122.949 153.611,121.949 151.5,120.5C 152.243,119.818 152.909,119.151 153.5,118.5C 154.487,115.95 156.154,113.283 158.5,110.5C 159.795,111.098 161.128,111.598 162.5,112C 161.5,112.833 160.5,113.667 159.5,114.5C 163.5,115.167 167.5,115.833 171.5,116.5C 172.853,117.685 174.02,119.019 175,120.5C 177.916,117.725 178.082,114.892 175.5,112C 176,111.833 176.5,111.667 177,111.5C 178.697,112.478 179.864,113.644 180.5,115C 185.684,115.174 190.684,115.674 195.5,116.5 Z"/></g>
<g><path style="opacity:1" fill="#f2d3fa" d="M 184.5,117.5 C 187.962,116.518 191.629,116.185 195.5,116.5C 195.737,117.791 195.404,118.791 194.5,119.5C 191.663,117.598 188.329,116.931 184.5,117.5 Z"/></g>
<g><path style="opacity:1" fill="#e5bdf4" d="M 170.5,117.5 C 166.818,117.335 163.152,117.501 159.5,118C 160.252,118.671 160.586,119.504 160.5,120.5C 159.163,119.685 158.163,118.518 157.5,117C 162.02,116.186 166.354,116.353 170.5,117.5 Z"/></g>
<g><path style="opacity:1" fill="#895aa9" d="M 307.5,172.5 C 304.15,172.335 300.817,172.502 297.5,173C 296.245,175.46 294.245,176.627 291.5,176.5C 291.716,178.681 290.883,180.347 289,181.5C 289.016,185.025 288.849,188.358 288.5,191.5C 285.053,181.891 288.053,175.058 297.5,171C 301.148,170.163 304.481,170.663 307.5,172.5 Z"/></g>
<g><path style="opacity:1" fill="#cf5fc6" d="M 359.5,227.5 C 359.5,229.167 359.5,230.833 359.5,232.5C 361.199,232.66 362.866,232.494 364.5,232C 367.641,229.735 370.974,227.902 374.5,226.5C 372.763,228.55 370.763,230.383 368.5,232C 370.708,232.191 372.708,232.691 374.5,233.5C 366.981,233.175 359.648,233.508 352.5,234.5C 338.565,227.734 323.899,225.734 308.5,228.5C 308.918,227.778 309.584,227.278 310.5,227C 320.833,226.333 331.167,226.333 341.5,227C 343.621,228.77 345.954,229.77 348.5,230C 347.315,228.647 345.981,227.48 344.5,226.5C 345.628,225.738 346.795,225.071 348,224.5C 349.041,228.07 350.707,228.403 353,225.5C 354.226,225.645 355.393,225.978 356.5,226.5C 356.833,226 357.167,225.5 357.5,225C 356.699,213.867 356.199,202.7 356,191.5C 355.667,196.5 355.333,201.5 355,206.5C 354,201.833 353,197.167 352,192.5C 351.727,194.101 351.227,195.601 350.5,197C 345.982,197.065 341.649,197.731 337.5,199C 341.211,199.175 344.878,199.675 348.5,200.5C 346.751,202.531 344.751,202.865 342.5,201.5C 340.453,203.015 338.119,203.849 335.5,204C 332.833,206.391 330.333,208.891 328,211.5C 325.804,210.91 323.638,210.243 321.5,209.5C 320.5,210.167 319.5,210.833 318.5,211.5C 317.006,209.438 315.34,207.438 313.5,205.5C 312.264,204.754 310.93,204.421 309.5,204.5C 311.139,203.527 312.473,202.194 313.5,200.5C 317.684,196.811 320.35,192.144 321.5,186.5C 328.434,180.366 336.434,176.366 345.5,174.5C 349.81,173.92 354.143,173.586 358.5,173.5C 358.17,191.674 358.503,209.674 359.5,227.5 Z"/></g>
<g><path style="opacity:1" fill="#aa93c3" d="M 206.5,173.5 C 186.674,174.497 166.674,174.83 146.5,174.5C 146.825,182.352 146.492,190.018 145.5,197.5C 145.5,189.5 145.5,181.5 145.5,173.5C 165.833,173.5 186.167,173.5 206.5,173.5 Z"/></g>
<g><path style="opacity:1" fill="#712ca5" d="M 307.5,172.5 C 308.646,175.635 310.479,178.302 313,180.5C 313.415,184.848 313.249,189.181 312.5,193.5C 312.027,194.906 311.027,195.573 309.5,195.5C 303.536,196.307 297.536,196.64 291.5,196.5C 291.5,197.5 291.5,198.5 291.5,199.5C 290.5,199.5 289.5,199.5 288.5,199.5C 288.5,200.833 288.5,202.167 288.5,203.5C 287.022,203.762 285.689,203.429 284.5,202.5C 284.023,199.391 284.69,196.391 286.5,193.5C 286.833,192.5 287.5,191.833 288.5,191.5C 288.849,188.358 289.016,185.025 289,181.5C 290.883,180.347 291.716,178.681 291.5,176.5C 294.245,176.627 296.245,175.46 297.5,173C 300.817,172.502 304.15,172.335 307.5,172.5 Z"/></g>
<g><path style="opacity:1" fill="#84539d" d="M 307.5,172.5 C 314.724,175.94 317.224,181.606 315,189.5C 314.066,190.858 313.232,192.192 312.5,193.5C 313.249,189.181 313.415,184.848 313,180.5C 310.479,178.302 308.646,175.635 307.5,172.5 Z"/></g>
<g><path style="opacity:1" fill="#a476b9" d="M 204.5,188.5 C 227.996,187.337 251.663,187.17 275.5,188C 276.38,189.356 276.714,190.856 276.5,192.5C 274.5,192.5 272.5,192.5 270.5,192.5C 271.568,191.566 272.901,191.232 274.5,191.5C 274.5,190.5 274.5,189.5 274.5,188.5C 251.167,188.5 227.833,188.5 204.5,188.5 Z"/></g>
<g><path style="opacity:1" fill="#8549a5" d="M 204.5,188.5 C 227.833,188.5 251.167,188.5 274.5,188.5C 274.5,189.5 274.5,190.5 274.5,191.5C 272.901,191.232 271.568,191.566 270.5,192.5C 235.909,193.973 201.243,194.473 166.5,194C 165.009,191.978 165.342,190.312 167.5,189C 179.829,188.5 192.162,188.333 204.5,188.5 Z"/></g>
<g><path style="opacity:1" fill="#b43daf" d="M 364.5,173.5 C 367.167,173.5 369.833,173.5 372.5,173.5C 383.16,175.166 392.493,179.499 400.5,186.5C 395.594,185.954 394.594,187.454 397.5,191C 395.765,191.651 394.098,191.485 392.5,190.5C 391.062,192.712 389.395,194.712 387.5,196.5C 380.18,200.322 372.513,202.989 364.5,204.5C 364.5,194.167 364.5,183.833 364.5,173.5 Z"/></g>
<g><path style="opacity:1" fill="#f4aff2" d="M 359.5,227.5 C 358.503,209.674 358.17,191.674 358.5,173.5C 354.143,173.586 349.81,173.92 345.5,174.5C 349.492,173.137 353.659,172.137 358,171.5C 358.333,171.833 358.667,172.167 359,172.5C 359.5,190.83 359.667,209.164 359.5,227.5 Z"/></g>
<g><path style="opacity:1" fill="#a568aa" d="M 400.5,186.5 C 404.664,189.832 408.331,193.665 411.5,198C 409.886,200.127 407.886,201.627 405.5,202.5C 406.152,200.517 407.152,198.683 408.5,197C 406.391,194.387 404.058,191.887 401.5,189.5C 400.873,188.583 400.539,187.583 400.5,186.5 Z"/></g>
<g><path style="opacity:1" fill="#9a35a1" d="M 364.5,173.5 C 364.5,183.833 364.5,194.167 364.5,204.5C 372.513,202.989 380.18,200.322 387.5,196.5C 389.395,194.712 391.062,192.712 392.5,190.5C 394.098,191.485 395.765,191.651 397.5,191C 394.594,187.454 395.594,185.954 400.5,186.5C 400.539,187.583 400.873,188.583 401.5,189.5C 404.058,191.887 406.391,194.387 408.5,197C 407.152,198.683 406.152,200.517 405.5,202.5C 393.678,210.915 381.345,218.582 368.5,225.5C 366.833,225.5 365.167,225.5 363.5,225.5C 363.17,207.992 363.503,190.659 364.5,173.5 Z"/></g>
<g><path style="opacity:1" fill="#c856c5" d="M 308.5,228.5 C 306.5,228.5 304.5,228.5 302.5,228.5C 302.917,224.165 303.417,219.832 304,215.5C 305.557,211.642 307.39,207.975 309.5,204.5C 310.93,204.421 312.264,204.754 313.5,205.5C 315.34,207.438 317.006,209.438 318.5,211.5C 319.5,210.833 320.5,210.167 321.5,209.5C 323.638,210.243 325.804,210.91 328,211.5C 330.333,208.891 332.833,206.391 335.5,204C 338.119,203.849 340.453,203.015 342.5,201.5C 344.751,202.865 346.751,202.531 348.5,200.5C 344.878,199.675 341.211,199.175 337.5,199C 341.649,197.731 345.982,197.065 350.5,197C 351.227,195.601 351.727,194.101 352,192.5C 353,197.167 354,201.833 355,206.5C 355.333,201.5 355.667,196.5 356,191.5C 356.199,202.7 356.699,213.867 357.5,225C 357.167,225.5 356.833,226 356.5,226.5C 355.393,225.978 354.226,225.645 353,225.5C 350.707,228.403 349.041,228.07 348,224.5C 346.795,225.071 345.628,225.738 344.5,226.5C 345.981,227.48 347.315,228.647 348.5,230C 345.954,229.77 343.621,228.77 341.5,227C 331.167,226.333 320.833,226.333 310.5,227C 309.584,227.278 308.918,227.778 308.5,228.5 Z"/></g>
<g><path style="opacity:1" fill="#7848a1" d="M 286.5,193.5 C 284.69,196.391 284.023,199.391 284.5,202.5C 285.689,203.429 287.022,203.762 288.5,203.5C 288.5,202.167 288.5,200.833 288.5,199.5C 289.5,199.5 290.5,199.5 291.5,199.5C 291.5,198.5 291.5,197.5 291.5,196.5C 297.536,196.64 303.536,196.307 309.5,195.5C 308.942,196.79 307.942,197.623 306.5,198C 302.775,198.76 299.108,198.593 295.5,197.5C 292.046,201.436 288.379,205.103 284.5,208.5C 284.67,207.178 284.337,206.011 283.5,205C 281.925,205.379 280.425,205.212 279,204.5C 277.728,208.379 275.061,210.713 271,211.5C 269.121,213.527 267.954,215.86 267.5,218.5C 265.784,218.629 264.117,218.962 262.5,219.5C 270.16,210.507 278.16,201.84 286.5,193.5 Z"/></g>
<g><path style="opacity:1" fill="#b67fb5" d="M 372.5,173.5 C 369.833,173.5 367.167,173.5 364.5,173.5C 363.503,190.659 363.17,207.992 363.5,225.5C 365.167,225.5 366.833,225.5 368.5,225.5C 367.089,227.539 365.089,228.539 362.5,228.5C 362.333,209.83 362.5,191.164 363,172.5C 363.561,171.978 364.228,171.645 365,171.5C 367.669,172.016 370.169,172.683 372.5,173.5 Z"/></g>
<g><path style="opacity:1" fill="#c680d1" d="M 419.5,213.5 C 418.5,213.5 417.5,213.5 416.5,213.5C 417.047,207.753 414.38,205.087 408.5,205.5C 410.185,203.182 412.519,202.182 415.5,202.5C 416.82,206.122 418.153,209.788 419.5,213.5 Z"/></g>
<g><path style="opacity:1" fill="#8457a8" d="M 284.5,208.5 C 279.505,214.495 274.172,220.161 268.5,225.5C 268.167,225.5 267.833,225.5 267.5,225.5C 266.5,225.167 265.833,224.5 265.5,223.5C 266.833,223.5 268.167,223.5 269.5,223.5C 269.5,221.833 269.5,220.167 269.5,218.5C 271.167,218.5 272.833,218.5 274.5,218.5C 274.739,216.533 274.406,214.699 273.5,213C 274.549,212.508 275.549,212.674 276.5,213.5C 277.524,212.147 278.857,211.48 280.5,211.5C 280.5,210.5 280.5,209.5 280.5,208.5C 281.833,208.5 283.167,208.5 284.5,208.5 Z"/></g>
<g><path style="opacity:1" fill="#9b64ab" d="M 223.5,215.5 C 221.958,214.699 220.292,214.366 218.5,214.5C 212.992,211.28 208.325,212.446 204.5,218C 203.637,220.227 202.637,222.393 201.5,224.5C 201.863,225.183 202.196,225.85 202.5,226.5C 202.66,228.199 202.494,229.866 202,231.5C 201.583,232.756 200.75,233.423 199.5,233.5C 199.294,228.512 199.794,223.512 201,218.5C 206.702,210.544 213.869,208.877 222.5,213.5C 223.298,213.957 223.631,214.624 223.5,215.5 Z"/></g>
<g><path style="opacity:1" fill="#652899" d="M 284.5,208.5 C 283.167,208.5 281.833,208.5 280.5,208.5C 280.5,209.5 280.5,210.5 280.5,211.5C 278.857,211.48 277.524,212.147 276.5,213.5C 275.549,212.674 274.549,212.508 273.5,213C 274.406,214.699 274.739,216.533 274.5,218.5C 272.833,218.5 271.167,218.5 269.5,218.5C 269.5,220.167 269.5,221.833 269.5,223.5C 268.167,223.5 266.833,223.5 265.5,223.5C 263.088,223.306 262.088,221.973 262.5,219.5C 264.117,218.962 265.784,218.629 267.5,218.5C 267.954,215.86 269.121,213.527 271,211.5C 275.061,210.713 277.728,208.379 279,204.5C 280.425,205.212 281.925,205.379 283.5,205C 284.337,206.011 284.67,207.178 284.5,208.5 Z"/></g>
<g><path style="opacity:1" fill="#894fa6" d="M 195.5,219.5 C 194.596,220.209 194.263,221.209 194.5,222.5C 189.968,222.182 185.634,222.515 181.5,223.5C 177.154,223.666 172.821,223.499 168.5,223C 167.167,221.333 167.167,219.667 168.5,218C 173,217.833 177.5,217.667 182,217.5C 186.886,217.507 191.386,218.174 195.5,219.5 Z"/></g>
<g><path style="opacity:1" fill="#933dbe" d="M 218.5,214.5 C 219.622,215.947 221.122,216.947 223,217.5C 223.37,221.276 224.536,224.776 226.5,228C 226.352,229.256 226.018,230.423 225.5,231.5C 223.145,233.338 220.479,234.838 217.5,236C 215.866,236.494 214.199,236.66 212.5,236.5C 211.359,235.661 210.026,234.994 208.5,234.5C 207.928,232.922 207.594,231.422 207.5,230C 206.258,229.689 205.258,230.189 204.5,231.5C 203.83,229.709 203.163,228.042 202.5,226.5C 202.196,225.85 201.863,225.183 201.5,224.5C 202.637,222.393 203.637,220.227 204.5,218C 208.325,212.446 212.992,211.28 218.5,214.5 Z"/></g>
<g><path style="opacity:1" fill="#c183d2" d="M 419.5,215.5 C 420.117,215.611 420.617,215.944 421,216.5C 422.577,222.062 423.41,227.728 423.5,233.5C 423.167,233.5 422.833,233.5 422.5,233.5C 422.87,228.386 421.536,224.553 418.5,222C 419.287,219.901 419.62,217.734 419.5,215.5 Z"/></g>
<g><path style="opacity:1" fill="#dfbaf4" d="M 195.5,219.5 C 195.5,220.833 195.5,222.167 195.5,223.5C 190.833,223.5 186.167,223.5 181.5,223.5C 185.634,222.515 189.968,222.182 194.5,222.5C 194.263,221.209 194.596,220.209 195.5,219.5 Z"/></g>
<g><path style="opacity:1" fill="#cb7ec6" d="M 313.5,200.5 C 312.473,202.194 311.139,203.527 309.5,204.5C 307.39,207.975 305.557,211.642 304,215.5C 303.417,219.832 302.917,224.165 302.5,228.5C 304.5,228.5 306.5,228.5 308.5,228.5C 306.316,229.266 303.982,229.933 301.5,230.5C 300.793,220.986 302.793,211.986 307.5,203.5C 309.528,202.451 311.528,201.451 313.5,200.5 Z"/></g>
<g><path style="opacity:1" fill="#b555d0" d="M 408.5,205.5 C 414.38,205.087 417.047,207.753 416.5,213.5C 417.5,213.5 418.5,213.5 419.5,213.5C 419.5,214.167 419.5,214.833 419.5,215.5C 419.62,217.734 419.287,219.901 418.5,222C 421.536,224.553 422.87,228.386 422.5,233.5C 422.167,233.5 421.833,233.5 421.5,233.5C 405.833,233.5 390.167,233.5 374.5,233.5C 372.708,232.691 370.708,232.191 368.5,232C 370.763,230.383 372.763,228.55 374.5,226.5C 385.495,219 396.828,212 408.5,205.5 Z"/></g>
<g><path style="opacity:1" fill="#ae87be" d="M 225.5,217.5 C 227.05,219.3 228.05,221.467 228.5,224C 230.708,224.191 232.708,224.691 234.5,225.5C 232.143,225.663 229.81,225.497 227.5,225C 226.645,222.564 225.979,220.064 225.5,217.5 Z"/></g>
<g><path style="opacity:1" fill="#d09fd9" d="M 246.5,223.5 C 246.262,225.404 245.262,226.738 243.5,227.5C 240.123,227.932 237.123,227.265 234.5,225.5C 239.039,227.41 243.039,226.744 246.5,223.5 Z"/></g>
<g><path style="opacity:1" fill="#78319e" d="M 218.5,214.5 C 220.292,214.366 221.958,214.699 223.5,215.5C 224.833,215.5 225.5,216.167 225.5,217.5C 225.979,220.064 226.645,222.564 227.5,225C 229.81,225.497 232.143,225.663 234.5,225.5C 237.123,227.265 240.123,227.932 243.5,227.5C 243.007,229.806 242.674,232.139 242.5,234.5C 240.833,234.5 239.167,234.5 237.5,234.5C 233.989,234.101 230.656,233.434 227.5,232.5C 227.158,231.662 226.492,231.328 225.5,231.5C 226.018,230.423 226.352,229.256 226.5,228C 224.536,224.776 223.37,221.276 223,217.5C 221.122,216.947 219.622,215.947 218.5,214.5 Z"/></g>
<g><path style="opacity:1" fill="#c44ec1" d="M 262.5,219.5 C 262.088,221.973 263.088,223.306 265.5,223.5C 265.833,224.5 266.5,225.167 267.5,225.5C 267.5,229.5 267.5,233.5 267.5,237.5C 266.5,237.5 265.5,237.5 264.5,237.5C 264.5,239.167 264.5,240.833 264.5,242.5C 261.766,243.721 258.933,244.721 256,245.5C 253.502,245.083 251.002,244.749 248.5,244.5C 244.932,242.59 242.932,239.59 242.5,235.5C 240.585,235.784 238.919,235.451 237.5,234.5C 239.167,234.5 240.833,234.5 242.5,234.5C 242.674,232.139 243.007,229.806 243.5,227.5C 245.262,226.738 246.262,225.404 246.5,223.5C 247.975,221.59 249.975,220.424 252.5,220C 255.97,219.831 259.303,219.665 262.5,219.5 Z"/></g>
<g><path style="opacity:1" fill="#f0d1f2" d="M 269.5,230.5 C 270.917,233.34 270.584,236.007 268.5,238.5C 269.092,235.873 269.425,233.206 269.5,230.5 Z"/></g>
<g><path style="opacity:1" fill="#813bac" d="M 157.5,205.5 C 158.469,221.119 158.803,236.786 158.5,252.5C 157.596,253.209 157.263,254.209 157.5,255.5C 156.766,254.122 156.099,252.622 155.5,251C 156.435,248.619 156.768,246.119 156.5,243.5C 155.584,231.531 155.251,219.531 155.5,207.5C 153.876,207.36 152.71,208.027 152,209.5C 151.833,211.667 151.667,213.833 151.5,216C 153.402,220.482 153.402,224.815 151.5,229C 153.431,238.844 152.097,239.011 147.5,229.5C 148.431,222.204 148.765,214.871 148.5,207.5C 146.61,207.297 145.11,207.963 144,209.5C 141.28,206.097 138.28,205.763 135,208.5C 134.333,216.167 134.333,223.833 135,231.5C 136.645,233.925 137.811,236.592 138.5,239.5C 139.532,233.041 138.865,226.708 136.5,220.5C 137.651,216.563 138.484,212.563 139,208.5C 139.333,212.833 139.667,217.167 140,221.5C 140.333,221.833 140.667,222.167 141,222.5C 141.632,220.469 142.799,218.802 144.5,217.5C 145.833,223.167 145.833,228.833 144.5,234.5C 143.5,235.833 142.5,237.167 141.5,238.5C 143.27,241.193 143.937,244.193 143.5,247.5C 141.955,248.23 141.122,249.563 141,251.5C 138.207,248.849 136.873,245.515 137,241.5C 136.047,243.373 134.88,243.706 133.5,242.5C 133.5,230.833 133.5,219.167 133.5,207.5C 133.833,206.833 134.167,206.167 134.5,205.5C 142.068,204.188 149.735,204.188 157.5,205.5 Z"/></g>
<g><path style="opacity:1" fill="#8235b2" d="M 156.5,243.5 C 154.836,244.949 154.002,246.949 154,249.5C 153.717,236.568 152.05,236.235 149,248.5C 147.642,236.997 145.808,236.664 143.5,247.5C 143.937,244.193 143.27,241.193 141.5,238.5C 142.5,237.167 143.5,235.833 144.5,234.5C 145.833,228.833 145.833,223.167 144.5,217.5C 142.799,218.802 141.632,220.469 141,222.5C 140.667,222.167 140.333,221.833 140,221.5C 139.667,217.167 139.333,212.833 139,208.5C 138.484,212.563 137.651,216.563 136.5,220.5C 138.865,226.708 139.532,233.041 138.5,239.5C 137.811,236.592 136.645,233.925 135,231.5C 134.333,223.833 134.333,216.167 135,208.5C 138.28,205.763 141.28,206.097 144,209.5C 145.11,207.963 146.61,207.297 148.5,207.5C 148.765,214.871 148.431,222.204 147.5,229.5C 152.097,239.011 153.431,238.844 151.5,229C 153.402,224.815 153.402,220.482 151.5,216C 151.667,213.833 151.833,211.667 152,209.5C 152.71,208.027 153.876,207.36 155.5,207.5C 155.251,219.531 155.584,231.531 156.5,243.5 Z"/></g>
<g><path style="opacity:1" fill="#be94d5" d="M 157.5,205.5 C 158.117,205.611 158.617,205.944 159,206.5C 159.5,236.498 159.667,266.498 159.5,296.5C 158.504,282.01 158.171,267.343 158.5,252.5C 158.803,236.786 158.469,221.119 157.5,205.5 Z"/></g>
<g><path style="opacity:1" fill="#6a2b9a" d="M 374.5,233.5 C 390.167,233.5 405.833,233.5 421.5,233.5C 421.5,233.833 421.5,234.167 421.5,234.5C 420.833,235.167 420.167,235.833 419.5,236.5C 417.257,235.188 414.59,234.522 411.5,234.5C 408.833,234.667 406.167,234.833 403.5,235C 405.554,236.682 405.221,238.349 402.5,240C 401.175,239.852 400.008,240.018 399,240.5C 397.866,242.794 397.366,244.961 397.5,247C 393.249,249.244 389.249,251.911 385.5,255C 384.167,255.333 382.833,255.667 381.5,256C 382.711,256.893 382.711,257.726 381.5,258.5C 380.583,257.873 379.583,257.539 378.5,257.5C 376.933,254.717 375.1,252.051 373,249.5C 372.51,248.207 372.343,246.873 372.5,245.5C 370.079,245.122 367.746,244.455 365.5,243.5C 361.304,240.241 356.97,237.241 352.5,234.5C 359.648,233.508 366.981,233.175 374.5,233.5 Z"/></g>
<g><path style="opacity:1" fill="#755098" d="M 421.5,233.5 C 421.833,233.5 422.167,233.5 422.5,233.5C 422.833,233.5 423.167,233.5 423.5,233.5C 424.15,244.166 422.15,254.166 417.5,263.5C 418.209,258.334 419.376,253.334 421,248.5C 421.196,243.676 421.363,239.009 421.5,234.5C 421.5,234.167 421.5,233.833 421.5,233.5 Z"/></g>
<g><path style="opacity:1" fill="#b551cd" d="M 124.5,232.5 C 124.5,237.5 124.5,242.5 124.5,247.5C 123.318,250.009 121.318,251.343 118.5,251.5C 117.549,254.942 116.215,258.275 114.5,261.5C 113.106,259.016 111.606,259.016 110,261.5C 108.441,260.971 106.941,260.304 105.5,259.5C 103.283,262.068 102.116,265.068 102,268.5C 101.802,266.618 101.302,264.952 100.5,263.5C 100.5,254.5 100.5,245.5 100.5,236.5C 100.33,235.178 100.663,234.011 101.5,233C 109.159,232.5 116.826,232.334 124.5,232.5 Z"/></g>
<g><path style="opacity:1" fill="#794f9c" d="M 304.5,236.5 C 302.444,239.549 299.444,241.216 295.5,241.5C 293.5,244.167 290.833,245.5 287.5,245.5C 292.171,240.817 297.837,237.817 304.5,236.5 Z"/></g>
<g><path style="opacity:1" fill="#652594" d="M 325.5,233.5 C 328.092,235.177 331.092,236.343 334.5,237C 334.167,237.333 333.833,237.667 333.5,238C 334.624,238.249 335.624,238.749 336.5,239.5C 336.154,240.696 335.654,240.696 335,239.5C 327.579,240.316 320.079,240.816 312.5,241C 309.268,242.466 305.935,243.633 302.5,244.5C 302.137,245.183 301.804,245.85 301.5,246.5C 297.984,247.254 294.651,248.587 291.5,250.5C 288.198,249.205 286.865,250.538 287.5,254.5C 282.171,253.928 280.504,255.928 282.5,260.5C 280.565,261.15 278.565,261.483 276.5,261.5C 276.343,260.127 276.51,258.793 277,257.5C 280.73,254.89 284.063,251.89 287,248.5C 287.483,247.552 287.649,246.552 287.5,245.5C 290.833,245.5 293.5,244.167 295.5,241.5C 299.444,241.216 302.444,239.549 304.5,236.5C 311.361,234.887 318.361,233.887 325.5,233.5 Z"/></g>
<g><path style="opacity:1" fill="#712c9e" d="M 202.5,226.5 C 203.163,228.042 203.83,229.709 204.5,231.5C 205.258,230.189 206.258,229.689 207.5,230C 207.594,231.422 207.928,232.922 208.5,234.5C 210.026,234.994 211.359,235.661 212.5,236.5C 209.794,236.425 207.127,236.092 204.5,235.5C 204.5,236.5 204.5,237.5 204.5,238.5C 203.5,238.5 202.5,238.5 201.5,238.5C 201.577,241.012 200.577,243.012 198.5,244.5C 197.325,243.145 196.325,243.312 195.5,245C 195.833,245.333 196.167,245.667 196.5,246C 193.074,247.238 191.408,246.071 191.5,242.5C 192.822,242.33 193.989,242.663 195,243.5C 195.843,239.779 197.343,236.446 199.5,233.5C 200.75,233.423 201.583,232.756 202,231.5C 202.494,229.866 202.66,228.199 202.5,226.5 Z"/></g>
<g><path style="opacity:1" fill="#b768b0" d="M 267.5,225.5 C 267.833,225.5 268.167,225.5 268.5,225.5C 268.629,227.216 268.962,228.883 269.5,230.5C 269.425,233.206 269.092,235.873 268.5,238.5C 266.192,243.961 262.025,246.961 256,247.5C 253.133,247.161 250.633,246.161 248.5,244.5C 251.002,244.749 253.502,245.083 256,245.5C 258.933,244.721 261.766,243.721 264.5,242.5C 264.5,240.833 264.5,239.167 264.5,237.5C 265.5,237.5 266.5,237.5 267.5,237.5C 267.5,233.5 267.5,229.5 267.5,225.5 Z"/></g>
<g><path style="opacity:1" fill="#7a3e98" d="M 325.5,233.5 C 348.601,235.471 365.434,246.804 376,267.5C 376.49,268.793 376.657,270.127 376.5,271.5C 375.184,269.284 373.517,267.284 371.5,265.5C 370.534,263.604 370.201,261.604 370.5,259.5C 368.516,259.383 366.85,260.05 365.5,261.5C 362.494,259.996 361.828,260.663 363.5,263.5C 347.02,243.237 326.353,237.57 301.5,246.5C 301.804,245.85 302.137,245.183 302.5,244.5C 305.935,243.633 309.268,242.466 312.5,241C 320.079,240.816 327.579,240.316 335,239.5C 335.654,240.696 336.154,240.696 336.5,239.5C 335.624,238.749 334.624,238.249 333.5,238C 333.833,237.667 334.167,237.333 334.5,237C 331.092,236.343 328.092,235.177 325.5,233.5 Z"/></g>
<g><path style="opacity:1" fill="#7e4b9c" d="M 225.5,231.5 C 226.492,231.328 227.158,231.662 227.5,232.5C 224.945,234.359 222.278,236.193 219.5,238C 215.577,238.793 211.744,238.626 208,237.5C 203.667,241.833 199.333,246.167 195,250.5C 192.766,248.3 190.266,246.467 187.5,245C 191.369,240.963 195.369,237.13 199.5,233.5C 197.343,236.446 195.843,239.779 195,243.5C 193.989,242.663 192.822,242.33 191.5,242.5C 191.408,246.071 193.074,247.238 196.5,246C 196.167,245.667 195.833,245.333 195.5,245C 196.325,243.312 197.325,243.145 198.5,244.5C 200.577,243.012 201.577,241.012 201.5,238.5C 202.5,238.5 203.5,238.5 204.5,238.5C 204.5,237.5 204.5,236.5 204.5,235.5C 207.127,236.092 209.794,236.425 212.5,236.5C 214.199,236.66 215.866,236.494 217.5,236C 220.479,234.838 223.145,233.338 225.5,231.5 Z"/></g>
<g><path style="opacity:1" fill="#592391" d="M 419.5,236.5 C 419.827,238.488 420.16,240.488 420.5,242.5C 420.291,243.994 419.624,245.161 418.5,246C 420.583,247.32 420.249,248.654 417.5,250C 417.833,250.333 418.167,250.667 418.5,251C 416.957,252.878 415.124,254.378 413,255.5C 412.751,258.177 411.751,260.51 410,262.5C 405.607,256.765 402.94,257.431 402,264.5C 400.989,265.337 399.822,265.67 398.5,265.5C 398.719,264.325 398.386,263.325 397.5,262.5C 393.553,266.75 388.887,267.584 383.5,265C 382.901,263.378 382.234,261.878 381.5,260.5C 380.167,259.833 379.167,258.833 378.5,257.5C 379.583,257.539 380.583,257.873 381.5,258.5C 382.711,257.726 382.711,256.893 381.5,256C 382.833,255.667 384.167,255.333 385.5,255C 389.249,251.911 393.249,249.244 397.5,247C 397.366,244.961 397.866,242.794 399,240.5C 400.008,240.018 401.175,239.852 402.5,240C 405.221,238.349 405.554,236.682 403.5,235C 406.167,234.833 408.833,234.667 411.5,234.5C 414.59,234.522 417.257,235.188 419.5,236.5 Z"/></g>
<g><path style="opacity:1" fill="#8d59a8" d="M 207.5,249.5 C 222.848,249.167 238.181,249.501 253.5,250.5C 254.833,251.833 254.833,253.167 253.5,254.5C 238.178,255.666 222.844,255.833 207.5,255C 206.248,253.172 206.248,251.339 207.5,249.5 Z"/></g>
<g><path style="opacity:1" fill="#7d54a2" d="M 301.5,246.5 C 294.65,250.334 288.316,255.001 282.5,260.5C 280.504,255.928 282.171,253.928 287.5,254.5C 286.865,250.538 288.198,249.205 291.5,250.5C 294.651,248.587 297.984,247.254 301.5,246.5 Z"/></g>
<g><path style="opacity:1" fill="#7b519b" d="M 365.5,243.5 C 367.746,244.455 370.079,245.122 372.5,245.5C 372.343,246.873 372.51,248.207 373,249.5C 375.1,252.051 376.933,254.717 378.5,257.5C 379.167,258.833 380.167,259.833 381.5,260.5C 381.5,262.5 381.5,264.5 381.5,266.5C 377.368,258.029 372.035,250.362 365.5,243.5 Z"/></g>
<g><path style="opacity:1" fill="#e8cef8" d="M 134.5,205.5 C 134.167,206.167 133.833,206.833 133.5,207.5C 132.502,237.329 132.169,267.329 132.5,297.5C 131.167,297.5 129.833,297.5 128.5,297.5C 129.209,296.596 130.209,296.263 131.5,296.5C 131.333,266.498 131.5,236.498 132,206.5C 132.671,205.748 133.504,205.414 134.5,205.5 Z"/></g>
<g><path style="opacity:1" fill="#8639b9" d="M 191.5,253.5 C 191.5,254.5 191.5,255.5 191.5,256.5C 190.833,270.672 190.167,285.006 189.5,299.5C 181.923,298.02 174.256,297.353 166.5,297.5C 166.333,282.163 166.5,266.83 167,251.5C 174.42,250.353 181.92,250.187 189.5,251C 190.066,251.995 190.733,252.828 191.5,253.5 Z"/></g>
<g><path style="opacity:1" fill="#ae89bd" d="M 353.5,263.5 C 353.714,261.856 353.38,260.356 352.5,259C 350.575,259.135 348.575,259.302 346.5,259.5C 348.64,258.095 350.974,257.262 353.5,257C 354.811,259.274 354.811,261.44 353.5,263.5 Z"/></g>
<g><path style="opacity:1" fill="#6d2ca4" d="M 156.5,243.5 C 156.768,246.119 156.435,248.619 155.5,251C 156.099,252.622 156.766,254.122 157.5,255.5C 156.637,261.455 156.303,267.455 156.5,273.5C 155.542,273.953 154.708,274.619 154,275.5C 153.667,272.167 153.333,268.833 153,265.5C 152.667,265.833 152.333,266.167 152,266.5C 150.756,272.111 149.756,277.778 149,283.5C 148.276,278.479 147.442,273.479 146.5,268.5C 145.621,272.154 144.787,275.821 144,279.5C 143.818,276.774 143.318,274.107 142.5,271.5C 141.719,272.729 141.219,274.062 141,275.5C 140.329,270.8 139.496,266.134 138.5,261.5C 137.5,264.833 136.5,268.167 135.5,271.5C 134.833,265.681 134.167,260.014 133.5,254.5C 133.5,250.5 133.5,246.5 133.5,242.5C 134.88,243.706 136.047,243.373 137,241.5C 136.873,245.515 138.207,248.849 141,251.5C 141.122,249.563 141.955,248.23 143.5,247.5C 145.808,236.664 147.642,236.997 149,248.5C 152.05,236.235 153.717,236.568 154,249.5C 154.002,246.949 154.836,244.949 156.5,243.5 Z"/></g>
<g><path style="opacity:1" fill="#752c9a" d="M 353.5,263.5 C 353.5,265.833 353.5,268.167 353.5,270.5C 352.521,273.625 352.187,276.958 352.5,280.5C 349.833,279.833 347.167,279.167 344.5,278.5C 342.859,279.147 341.526,280.147 340.5,281.5C 338.278,282.386 336.112,282.386 334,281.5C 332.97,281.836 332.47,282.503 332.5,283.5C 331.5,283.5 330.5,283.5 329.5,283.5C 329.253,281.142 329.919,279.142 331.5,277.5C 331.5,276.167 332.167,275.5 333.5,275.5C 334.693,275.03 335.36,274.03 335.5,272.5C 335.046,270.306 334.046,268.473 332.5,267C 335.266,264.699 338.266,262.866 341.5,261.5C 342.93,260.463 344.597,259.796 346.5,259.5C 348.575,259.302 350.575,259.135 352.5,259C 353.38,260.356 353.714,261.856 353.5,263.5 Z"/></g>
<g><path style="opacity:1" fill="#4d1d86" d="M 421.5,234.5 C 421.363,239.009 421.196,243.676 421,248.5C 419.376,253.334 418.209,258.334 417.5,263.5C 417.5,263.833 417.5,264.167 417.5,264.5C 413.286,264.807 411.286,267.14 411.5,271.5C 410.448,271.351 409.448,271.517 408.5,272C 409.517,273.049 409.684,274.216 409,275.5C 407.667,274.167 406.333,274.167 405,275.5C 404.503,277.81 404.337,280.143 404.5,282.5C 402.323,282.414 400.323,281.747 398.5,280.5C 397.269,281.651 397.269,282.817 398.5,284C 398,284.5 397.5,285 397,285.5C 396.51,284.207 396.343,282.873 396.5,281.5C 394.08,281.858 392.08,282.691 390.5,284C 389.667,283.167 388.833,282.333 388,281.5C 386.815,276.745 384.982,272.412 382.5,268.5C 381.662,268.158 381.328,267.492 381.5,266.5C 381.5,264.5 381.5,262.5 381.5,260.5C 382.234,261.878 382.901,263.378 383.5,265C 388.887,267.584 393.553,266.75 397.5,262.5C 398.386,263.325 398.719,264.325 398.5,265.5C 399.822,265.67 400.989,265.337 402,264.5C 402.94,257.431 405.607,256.765 410,262.5C 411.751,260.51 412.751,258.177 413,255.5C 415.124,254.378 416.957,252.878 418.5,251C 418.167,250.667 417.833,250.333 417.5,250C 420.249,248.654 420.583,247.32 418.5,246C 419.624,245.161 420.291,243.994 420.5,242.5C 420.16,240.488 419.827,238.488 419.5,236.5C 420.167,235.833 420.833,235.167 421.5,234.5 Z"/></g>
<g><path style="opacity:1" fill="#b886c2" d="M 124.5,231.5 C 124.5,231.833 124.5,232.167 124.5,232.5C 116.826,232.334 109.159,232.5 101.5,233C 100.663,234.011 100.33,235.178 100.5,236.5C 99.8123,258.039 99.1456,279.706 98.5,301.5C 98.1667,301.5 97.8333,301.5 97.5,301.5C 97.3334,279.164 97.5,256.831 98,234.5C 98.5,233.5 99,232.5 99.5,231.5C 107.991,230.179 116.324,230.179 124.5,231.5 Z"/></g>
<g><path style="opacity:1" fill="#8d5fa4" d="M 341.5,261.5 C 338.266,262.866 335.266,264.699 332.5,267C 334.046,268.473 335.046,270.306 335.5,272.5C 335.36,274.03 334.693,275.03 333.5,275.5C 334.028,274.153 334.195,272.819 334,271.5C 332.13,269.781 329.963,268.781 327.5,268.5C 327.5,267.5 327.5,266.5 327.5,265.5C 332.097,263.968 336.764,262.635 341.5,261.5 Z"/></g>
<g><path style="opacity:1" fill="#9274b0" d="M 191.5,251.5 C 192.18,267.735 192.847,284.069 193.5,300.5C 191.517,286.205 190.85,271.538 191.5,256.5C 191.5,255.5 191.5,254.5 191.5,253.5C 191.5,252.833 191.5,252.167 191.5,251.5 Z"/></g>
<g><path style="opacity:1" fill="#9977aa" d="M 252.5,283.5 C 237.672,284.661 222.672,284.828 207.5,284C 206.167,282.333 206.167,280.667 207.5,279C 222.833,278.333 238.167,278.333 253.5,279C 254.916,280.915 254.582,282.415 252.5,283.5 Z"/></g>
<g><path style="opacity:1" fill="#8a5f9e" d="M 353.5,270.5 C 353.827,275.214 353.493,279.88 352.5,284.5C 349.508,282.829 346.841,280.829 344.5,278.5C 347.167,279.167 349.833,279.833 352.5,280.5C 352.187,276.958 352.521,273.625 353.5,270.5 Z"/></g>
<g><path style="opacity:1" fill="#4e2981" d="M 417.5,264.5 C 411.663,278.339 401.997,288.672 388.5,295.5C 386.952,295.179 386.285,294.179 386.5,292.5C 385.953,284.359 384.62,276.359 382.5,268.5C 384.982,272.412 386.815,276.745 388,281.5C 388.833,282.333 389.667,283.167 390.5,284C 392.08,282.691 394.08,281.858 396.5,281.5C 396.343,282.873 396.51,284.207 397,285.5C 397.5,285 398,284.5 398.5,284C 397.269,282.817 397.269,281.651 398.5,280.5C 400.323,281.747 402.323,282.414 404.5,282.5C 404.337,280.143 404.503,277.81 405,275.5C 406.333,274.167 407.667,274.167 409,275.5C 409.684,274.216 409.517,273.049 408.5,272C 409.448,271.517 410.448,271.351 411.5,271.5C 411.286,267.14 413.286,264.807 417.5,264.5 Z"/></g>
<g><path style="opacity:1" fill="#66298c" d="M 252.5,283.5 C 237.833,283.5 223.167,283.5 208.5,283.5C 208.5,282.167 208.5,280.833 208.5,279.5C 223.167,279.5 237.833,279.5 252.5,279.5C 252.5,280.833 252.5,282.167 252.5,283.5 Z"/></g>
<g><path style="opacity:1" fill="#5c3b8e" d="M 272.5,262.5 C 272.409,266.54 271.242,270.207 269,273.5C 266.405,287.742 267.239,301.742 271.5,315.5C 268.623,311.724 266.79,307.39 266,302.5C 264.33,289.714 265.663,277.381 270,265.5C 270.852,264.429 271.685,263.429 272.5,262.5 Z"/></g>
<g><path style="opacity:1" fill="#5e2c88" d="M 376.5,271.5 C 377.117,271.611 377.617,271.944 378,272.5C 378.567,275.168 379.067,277.834 379.5,280.5C 379.081,287.56 379.081,294.56 379.5,301.5C 379.319,306.825 377.652,311.492 374.5,315.5C 374.342,311.788 374.342,308.288 374.5,305C 373.874,304.25 373.374,303.416 373,302.5C 371.65,306.417 369.984,310.084 368,313.5C 367.506,315.134 367.34,316.801 367.5,318.5C 365.315,318.704 363.315,319.37 361.5,320.5C 374.018,302.046 374.684,283.046 363.5,263.5C 361.828,260.663 362.494,259.996 365.5,261.5C 366.85,260.05 368.516,259.383 370.5,259.5C 370.201,261.604 370.534,263.604 371.5,265.5C 373.517,267.284 375.184,269.284 376.5,271.5 Z"/></g>
<g><path style="opacity:1" fill="#9b4bbd" d="M 124.5,231.5 C 125.117,231.611 125.617,231.944 126,232.5C 125.842,254.523 126.675,276.19 128.5,297.5C 121.359,299.353 114.026,299.687 106.5,298.5C 106.167,297.5 105.5,296.833 104.5,296.5C 103.376,297.914 102.376,299.414 101.5,301C 100.552,301.483 99.552,301.649 98.5,301.5C 99.1456,279.706 99.8123,258.039 100.5,236.5C 100.5,245.5 100.5,254.5 100.5,263.5C 101.166,271.483 101.499,279.483 101.5,287.5C 105.276,285.059 109.276,283.059 113.5,281.5C 113.261,279.533 113.594,277.699 114.5,276C 112.406,275.555 110.906,276.388 110,278.5C 109.383,277.551 109.549,276.718 110.5,276C 109.354,275.355 108.354,274.522 107.5,273.5C 106.416,274.665 105.583,275.998 105,277.5C 102.713,275.763 102.213,273.43 103.5,270.5C 106.146,270.417 108.313,270.417 110,270.5C 110.333,269.167 110.667,267.833 111,266.5C 111.333,268.833 111.667,271.167 112,273.5C 112.92,270.899 113.587,268.232 114,265.5C 115.062,268.029 115.895,270.696 116.5,273.5C 118.149,272.352 119.649,271.019 121,269.5C 121.333,264.833 121.667,260.167 122,255.5C 122.059,260.348 122.726,265.015 124,269.5C 124.5,262.174 124.666,254.841 124.5,247.5C 124.5,242.5 124.5,237.5 124.5,232.5C 124.5,232.167 124.5,231.833 124.5,231.5 Z"/></g>
<g><path style="opacity:1" fill="#a449c6" d="M 124.5,247.5 C 124.666,254.841 124.5,262.174 124,269.5C 122.726,265.015 122.059,260.348 122,255.5C 121.667,260.167 121.333,264.833 121,269.5C 119.649,271.019 118.149,272.352 116.5,273.5C 115.895,270.696 115.062,268.029 114,265.5C 113.587,268.232 112.92,270.899 112,273.5C 111.667,271.167 111.333,268.833 111,266.5C 110.667,267.833 110.333,269.167 110,270.5C 108.313,270.417 106.146,270.417 103.5,270.5C 102.213,273.43 102.713,275.763 105,277.5C 105.583,275.998 106.416,274.665 107.5,273.5C 108.354,274.522 109.354,275.355 110.5,276C 109.549,276.718 109.383,277.551 110,278.5C 110.906,276.388 112.406,275.555 114.5,276C 113.594,277.699 113.261,279.533 113.5,281.5C 109.276,283.059 105.276,285.059 101.5,287.5C 101.499,279.483 101.166,271.483 100.5,263.5C 101.302,264.952 101.802,266.618 102,268.5C 102.116,265.068 103.283,262.068 105.5,259.5C 106.941,260.304 108.441,260.971 110,261.5C 111.606,259.016 113.106,259.016 114.5,261.5C 116.215,258.275 117.549,254.942 118.5,251.5C 121.318,251.343 123.318,250.009 124.5,247.5 Z"/></g>
<g><path style="opacity:1" fill="#6e3c92" d="M 331.5,277.5 C 329.919,279.142 329.253,281.142 329.5,283.5C 330.5,283.5 331.5,283.5 332.5,283.5C 329.741,283.933 328.408,285.6 328.5,288.5C 326.833,288.5 325.167,288.5 323.5,288.5C 323.5,289.5 323.5,290.5 323.5,291.5C 321.076,291.808 318.743,291.474 316.5,290.5C 314.336,288.709 311.836,287.376 309,286.5C 306.756,288.184 304.256,289.184 301.5,289.5C 303.182,286.985 305.348,284.985 308,283.5C 312.022,285.095 315.856,287.095 319.5,289.5C 323.236,285.097 327.236,281.097 331.5,277.5 Z"/></g>
<g><path style="opacity:1" fill="#5c2091" d="M 332.5,283.5 C 334.048,283.821 334.715,284.821 334.5,286.5C 332.567,286.729 330.9,287.562 329.5,289C 328.663,290.011 328.33,291.178 328.5,292.5C 327.167,292.5 325.833,292.5 324.5,292.5C 324.762,293.978 324.429,295.311 323.5,296.5C 320.322,296.311 316.988,295.978 313.5,295.5C 313.711,291.016 311.711,289.183 307.5,290C 310.17,291.724 309.837,292.891 306.5,293.5C 305.742,292.189 304.742,291.689 303.5,292C 303.895,294.223 304.228,296.389 304.5,298.5C 303.833,298.5 303.5,298.833 303.5,299.5C 301.473,299.662 299.473,299.495 297.5,299C 297.043,298.586 296.709,298.086 296.5,297.5C 298.689,295.113 300.356,292.447 301.5,289.5C 304.256,289.184 306.756,288.184 309,286.5C 311.836,287.376 314.336,288.709 316.5,290.5C 318.743,291.474 321.076,291.808 323.5,291.5C 323.5,290.5 323.5,289.5 323.5,288.5C 325.167,288.5 326.833,288.5 328.5,288.5C 328.408,285.6 329.741,283.933 332.5,283.5 Z"/></g>
<g><path style="opacity:1" fill="#8f74a8" d="M 379.5,280.5 C 380.833,287.5 380.833,294.5 379.5,301.5C 379.081,294.56 379.081,287.56 379.5,280.5 Z"/></g>
<g><path style="opacity:1" fill="#d3cce6" d="M 386.5,292.5 C 386.285,294.179 386.952,295.179 388.5,295.5C 387.791,296.404 386.791,296.737 385.5,296.5C 385.232,294.901 385.566,293.568 386.5,292.5 Z"/></g>
<g><path style="opacity:1" fill="#6c3f95" d="M 340.5,281.5 C 334.838,288.162 328.838,294.495 322.5,300.5C 321.833,300.5 321.167,300.5 320.5,300.5C 316.354,299.176 312.52,297.176 309,294.5C 307.301,295.704 305.801,297.038 304.5,298.5C 304.228,296.389 303.895,294.223 303.5,292C 304.742,291.689 305.742,292.189 306.5,293.5C 309.837,292.891 310.17,291.724 307.5,290C 311.711,289.183 313.711,291.016 313.5,295.5C 316.988,295.978 320.322,296.311 323.5,296.5C 324.429,295.311 324.762,293.978 324.5,292.5C 325.833,292.5 327.167,292.5 328.5,292.5C 328.33,291.178 328.663,290.011 329.5,289C 330.9,287.562 332.567,286.729 334.5,286.5C 334.715,284.821 334.048,283.821 332.5,283.5C 332.47,282.503 332.97,281.836 334,281.5C 336.112,282.386 338.278,282.386 340.5,281.5 Z"/></g>
<g><path style="opacity:1" fill="#ae8cc5" d="M 357.5,290.5 C 351.833,290.5 346.167,290.5 340.5,290.5C 340.828,302.012 340.495,313.346 339.5,324.5C 339.5,312.833 339.5,301.167 339.5,289.5C 345.69,289.177 351.69,289.51 357.5,290.5 Z"/></g>
<g><path style="opacity:1" fill="#674291" d="M 301.5,289.5 C 300.356,292.447 298.689,295.113 296.5,297.5C 296.709,298.086 297.043,298.586 297.5,299C 299.473,299.495 301.473,299.662 303.5,299.5C 300.5,302.167 297.5,304.833 294.5,307.5C 294.64,305.876 293.973,304.71 292.5,304C 293.938,303.781 295.271,303.281 296.5,302.5C 295.902,301.205 295.402,299.872 295,298.5C 293.902,299.967 292.402,300.801 290.5,301C 289.018,302.983 287.351,304.816 285.5,306.5C 286.012,309.351 287.679,310.684 290.5,310.5C 290.189,311.478 289.522,312.145 288.5,312.5C 286.35,310.851 284.35,309.018 282.5,307C 288.403,300.593 294.737,294.759 301.5,289.5 Z"/></g>
<g><path style="opacity:1" fill="#662e8f" d="M 133.5,207.5 C 133.5,219.167 133.5,230.833 133.5,242.5C 133.5,246.5 133.5,250.5 133.5,254.5C 133.538,270.012 133.538,285.346 133.5,300.5C 136.419,301.932 137.752,300.932 137.5,297.5C 141.215,297.196 144.715,297.863 148,299.5C 150.333,298.833 152.667,298.167 155,297.5C 156.435,289.611 156.935,281.611 156.5,273.5C 156.303,267.455 156.637,261.455 157.5,255.5C 157.263,254.209 157.596,253.209 158.5,252.5C 158.171,267.343 158.504,282.01 159.5,296.5C 161.265,297.461 163.265,297.795 165.5,297.5C 165.5,282.167 165.5,266.833 165.5,251.5C 169.276,250.175 173.443,249.509 178,249.5C 182.167,249.667 186.333,249.833 190.5,250C 191.056,250.383 191.389,250.883 191.5,251.5C 191.5,252.167 191.5,252.833 191.5,253.5C 190.733,252.828 190.066,251.995 189.5,251C 181.92,250.187 174.42,250.353 167,251.5C 166.5,266.83 166.333,282.163 166.5,297.5C 174.256,297.353 181.923,298.02 189.5,299.5C 190.167,285.006 190.833,270.672 191.5,256.5C 190.85,271.538 191.517,286.205 193.5,300.5C 201.657,301.54 209.657,303.207 217.5,305.5C 217.389,306.117 217.056,306.617 216.5,307C 218.256,307.202 219.922,307.702 221.5,308.5C 220.833,308.833 220.167,309.167 219.5,309.5C 215.547,308.638 211.547,308.305 207.5,308.5C 180.933,305.519 154.267,304.185 127.5,304.5C 117.478,304.832 107.478,304.499 97.5,303.5C 97.8627,302.817 98.1961,302.15 98.5,301.5C 99.552,301.649 100.552,301.483 101.5,301C 102.376,299.414 103.376,297.914 104.5,296.5C 105.5,296.833 106.167,297.5 106.5,298.5C 114.026,299.687 121.359,299.353 128.5,297.5C 129.833,297.5 131.167,297.5 132.5,297.5C 132.169,267.329 132.502,237.329 133.5,207.5 Z"/></g>
<g><path style="opacity:1" fill="#a780bf" d="M 165.5,251.5 C 165.5,266.833 165.5,282.167 165.5,297.5C 163.265,297.795 161.265,297.461 159.5,296.5C 161.167,296.5 162.833,296.5 164.5,296.5C 164.171,281.324 164.504,266.324 165.5,251.5 Z"/></g>
<g><path style="opacity:1" fill="#63269a" d="M 133.5,254.5 C 134.167,260.014 134.833,265.681 135.5,271.5C 136.5,268.167 137.5,264.833 138.5,261.5C 139.496,266.134 140.329,270.8 141,275.5C 141.219,274.062 141.719,272.729 142.5,271.5C 143.318,274.107 143.818,276.774 144,279.5C 144.787,275.821 145.621,272.154 146.5,268.5C 147.442,273.479 148.276,278.479 149,283.5C 149.756,277.778 150.756,272.111 152,266.5C 152.333,266.167 152.667,265.833 153,265.5C 153.333,268.833 153.667,272.167 154,275.5C 154.708,274.619 155.542,273.953 156.5,273.5C 156.935,281.611 156.435,289.611 155,297.5C 152.667,298.167 150.333,298.833 148,299.5C 144.715,297.863 141.215,297.196 137.5,297.5C 137.752,300.932 136.419,301.932 133.5,300.5C 133.538,285.346 133.538,270.012 133.5,254.5 Z"/></g>
<g><path style="opacity:1" fill="#dabeea" d="M 320.5,300.5 C 321.167,300.5 321.833,300.5 322.5,300.5C 326.97,301.486 331.637,301.819 336.5,301.5C 336.737,302.791 336.404,303.791 335.5,304.5C 330.265,302.55 324.598,301.883 318.5,302.5C 319.167,301.833 319.833,301.167 320.5,300.5 Z"/></g>
<g><path style="opacity:1" fill="#f1ccf5" d="M 357.5,290.5 C 358.167,300.674 358.833,311.008 359.5,321.5C 360.183,321.137 360.85,320.804 361.5,320.5C 360.554,321.931 359.388,323.264 358,324.5C 357.536,323.906 357.369,323.239 357.5,322.5C 357.5,311.833 357.5,301.167 357.5,290.5 Z"/></g>
<g><path style="opacity:1" fill="#784a95" d="M 97.5,301.5 C 97.8333,301.5 98.1667,301.5 98.5,301.5C 98.1961,302.15 97.8627,302.817 97.5,303.5C 107.478,304.499 117.478,304.832 127.5,304.5C 111.978,305.583 96.3111,306.416 80.5,307C 85.8515,304.272 91.5182,302.439 97.5,301.5 Z"/></g>
<g><path style="opacity:1" fill="#5a378c" d="M 287.5,245.5 C 287.649,246.552 287.483,247.552 287,248.5C 284.063,251.89 280.73,254.89 277,257.5C 276.51,258.793 276.343,260.127 276.5,261.5C 278.565,261.483 280.565,261.15 282.5,260.5C 273.184,276.033 271.517,292.367 277.5,309.5C 276.5,309.5 275.5,309.5 274.5,309.5C 273.096,303.929 271.763,297.596 270.5,290.5C 270.808,289.692 271.308,289.025 272,288.5C 272.343,279.811 274.51,271.645 278.5,264C 277.069,263.535 275.903,262.701 275,261.5C 274.329,262.252 273.496,262.586 272.5,262.5C 275.75,255.252 280.75,249.586 287.5,245.5 Z"/></g>
<g><path style="opacity:1" fill="#491e80" d="M 294.5,307.5 C 293.167,308.5 291.833,309.5 290.5,310.5C 287.679,310.684 286.012,309.351 285.5,306.5C 287.351,304.816 289.018,302.983 290.5,301C 292.402,300.801 293.902,299.967 295,298.5C 295.402,299.872 295.902,301.205 296.5,302.5C 295.271,303.281 293.938,303.781 292.5,304C 293.973,304.71 294.64,305.876 294.5,307.5 Z"/></g>
<g><path style="opacity:1" fill="#ebd8f6" d="M 313.5,309.5 C 313.167,309.5 312.833,309.5 312.5,309.5C 307.167,309.5 301.833,309.5 296.5,309.5C 296.768,311.099 296.434,312.432 295.5,313.5C 295.5,311.833 295.5,310.167 295.5,308.5C 301.69,308.177 307.69,308.51 313.5,309.5 Z"/></g>
<g><path style="opacity:1" fill="#642691" d="M 317.5,303.5 C 323.167,303.5 328.833,303.5 334.5,303.5C 334.5,310.5 334.5,317.5 334.5,324.5C 333.21,325.058 332.377,326.058 332,327.5C 331.026,325.122 330.359,325.456 330,328.5C 329.107,327.289 328.274,327.289 327.5,328.5C 328.025,329.192 328.692,329.692 329.5,330C 327.5,330.667 325.5,330.667 323.5,330C 324.308,329.692 324.975,329.192 325.5,328.5C 323.955,327.548 322.288,327.215 320.5,327.5C 320.307,323.551 319.807,323.551 319,327.5C 318.802,325.618 318.302,323.952 317.5,322.5C 317.5,316.167 317.5,309.833 317.5,303.5 Z"/></g>
<g><path style="opacity:1" fill="#6a4b8c" d="M 217.5,305.5 C 225.572,307.098 233.239,309.765 240.5,313.5C 240,313.833 239.5,314.167 239,314.5C 228.37,312.451 217.87,310.451 207.5,308.5C 211.547,308.305 215.547,308.638 219.5,309.5C 220.167,309.167 220.833,308.833 221.5,308.5C 219.922,307.702 218.256,307.202 216.5,307C 217.056,306.617 217.389,306.117 217.5,305.5 Z"/></g>
<g><path style="opacity:1" fill="#5e2290" d="M 356.5,322.5 C 355.294,323.88 355.627,325.047 357.5,326C 355.981,327.351 354.648,328.851 353.5,330.5C 352.268,329.855 350.935,329.689 349.5,330C 348.789,328.745 347.956,327.579 347,326.5C 346.941,329.822 345.774,332.656 343.5,335C 344.672,335.419 345.672,336.085 346.5,337C 344.888,337.72 343.388,337.554 342,336.5C 342.348,333.064 342.181,329.731 341.5,326.5C 341.5,314.833 341.5,303.167 341.5,291.5C 346.5,291.5 351.5,291.5 356.5,291.5C 356.5,301.833 356.5,312.167 356.5,322.5 Z"/></g>
<g><path style="opacity:1" fill="#492085" d="M 277.5,309.5 C 281.051,316.383 285.718,322.383 291.5,327.5C 288.469,326.508 285.469,325.674 282.5,325C 284.601,328.408 286.601,331.908 288.5,335.5C 280.663,330.664 274.997,323.998 271.5,315.5C 267.239,301.742 266.405,287.742 269,273.5C 271.242,270.207 272.409,266.54 272.5,262.5C 273.496,262.586 274.329,262.252 275,261.5C 275.903,262.701 277.069,263.535 278.5,264C 274.51,271.645 272.343,279.811 272,288.5C 271.308,289.025 270.808,289.692 270.5,290.5C 271.763,297.596 273.096,303.929 274.5,309.5C 275.5,309.5 276.5,309.5 277.5,309.5 Z"/></g>
<g><path style="opacity:1" fill="#683c93" d="M 230.5,339.5 C 229.791,340.404 228.791,340.737 227.5,340.5C 227.5,341.833 227.5,343.167 227.5,344.5C 200.167,344.5 172.833,344.5 145.5,344.5C 142.459,343.625 140.625,341.625 140,338.5C 139.5,329.84 139.334,321.173 139.5,312.5C 141.833,312.5 144.167,312.5 146.5,312.5C 146.183,321.085 146.517,329.585 147.5,338C 175.239,338.175 202.905,338.675 230.5,339.5 Z"/></g>
<g><path style="opacity:1" fill="#63398b" d="M 357.5,290.5 C 357.5,301.167 357.5,311.833 357.5,322.5C 357.167,322.5 356.833,322.5 356.5,322.5C 356.5,312.167 356.5,301.833 356.5,291.5C 351.5,291.5 346.5,291.5 341.5,291.5C 341.5,303.167 341.5,314.833 341.5,326.5C 341.057,329.814 340.057,332.981 338.5,336C 340.497,337.153 340.83,338.653 339.5,340.5C 338.614,339.675 338.281,338.675 338.5,337.5C 337.167,337.5 335.833,337.5 334.5,337.5C 334.5,333.167 334.5,328.833 334.5,324.5C 334.5,317.5 334.5,310.5 334.5,303.5C 328.833,303.5 323.167,303.5 317.5,303.5C 317.5,302.833 317.833,302.5 318.5,302.5C 324.598,301.883 330.265,302.55 335.5,304.5C 335.333,315.172 335.5,325.839 336,336.5C 338.561,334.019 339.061,331.186 337.5,328C 337.808,326.541 338.475,325.374 339.5,324.5C 340.495,313.346 340.828,302.012 340.5,290.5C 346.167,290.5 351.833,290.5 357.5,290.5 Z"/></g>
<g><path style="opacity:1" fill="#705691" d="M 374.5,315.5 C 372.73,320.713 369.73,325.047 365.5,328.5C 367.267,323.295 370.267,318.962 374.5,315.5 Z"/></g>
<g><path style="opacity:1" fill="#dbc4ef" d="M 295.5,319.5 C 296.482,322.962 296.815,326.629 296.5,330.5C 295.209,330.737 294.209,330.404 293.5,329.5C 295.402,326.663 296.069,323.329 295.5,319.5 Z"/></g>
<g><path style="opacity:1" fill="#71528e" d="M 261.5,329.5 C 259.519,328.652 257.519,328.152 255.5,328C 252.573,331.796 248.906,334.629 244.5,336.5C 248.473,332.699 252.64,329.032 257,325.5C 259.118,326.283 260.618,327.616 261.5,329.5 Z"/></g>
<g><path style="opacity:1" fill="#4f1e88" d="M 312.5,309.5 C 312.5,316.167 312.5,322.833 312.5,329.5C 310.518,331.597 309.518,334.264 309.5,337.5C 308.07,337.421 306.736,337.754 305.5,338.5C 302.243,335.68 298.576,334.18 294.5,334C 296.729,335.485 299.062,336.818 301.5,338C 300.437,339.188 299.103,339.688 297.5,339.5C 295.129,336.816 292.129,335.482 288.5,335.5C 286.601,331.908 284.601,328.408 282.5,325C 285.469,325.674 288.469,326.508 291.5,327.5C 292.5,327.833 293.167,328.5 293.5,329.5C 294.209,330.404 295.209,330.737 296.5,330.5C 296.815,326.629 296.482,322.962 295.5,319.5C 295.5,317.5 295.5,315.5 295.5,313.5C 296.434,312.432 296.768,311.099 296.5,309.5C 301.833,309.5 307.167,309.5 312.5,309.5 Z"/></g>
<g><path style="opacity:1" fill="#563080" d="M 267.5,318.5 C 272.536,325.045 278.203,331.212 284.5,337C 283.405,338.819 281.905,340.319 280,341.5C 274.043,336.545 268.377,331.212 263,325.5C 262.333,324.833 262.333,324.167 263,323.5C 264.707,321.963 266.207,320.296 267.5,318.5 Z"/></g>
<g><path style="opacity:1" fill="#7d59ab" d="M 312.5,309.5 C 312.833,309.5 313.167,309.5 313.5,309.5C 313.101,318.029 313.767,326.363 315.5,334.5C 314.849,335.091 314.182,335.757 313.5,336.5C 312.526,334.257 312.192,331.924 312.5,329.5C 312.5,322.833 312.5,316.167 312.5,309.5 Z"/></g>
<g><path style="opacity:1" fill="#775f98" d="M 288.5,335.5 C 292.129,335.482 295.129,336.816 297.5,339.5C 297.833,340.167 298.167,340.833 298.5,341.5C 294.575,340.421 291.242,338.421 288.5,335.5 Z"/></g>
<g><path style="opacity:1" fill="#6f578d" d="M 350.5,340.5 C 348.11,342.02 345.443,343.02 342.5,343.5C 342.918,342.778 343.584,342.278 344.5,342C 344.167,341.667 343.833,341.333 343.5,341C 345.355,340.578 347.189,340.078 349,339.5C 349.765,339.57 350.265,339.903 350.5,340.5 Z"/></g>
<g><path style="opacity:1" fill="#441b7e" d="M 374.5,315.5 C 370.267,318.962 367.267,323.295 365.5,328.5C 361.452,333.691 356.452,337.691 350.5,340.5C 350.265,339.903 349.765,339.57 349,339.5C 347.189,340.078 345.355,340.578 343.5,341C 343.833,341.333 344.167,341.667 344.5,342C 343.584,342.278 342.918,342.778 342.5,343.5C 342.167,343.5 341.833,343.5 341.5,343.5C 335.47,343.837 329.47,344.504 323.5,345.5C 316.279,343.63 308.946,342.63 301.5,342.5C 300.391,342.443 299.391,342.11 298.5,341.5C 298.167,340.833 297.833,340.167 297.5,339.5C 299.103,339.688 300.437,339.188 301.5,338C 299.062,336.818 296.729,335.485 294.5,334C 298.576,334.18 302.243,335.68 305.5,338.5C 306.736,337.754 308.07,337.421 309.5,337.5C 309.518,334.264 310.518,331.597 312.5,329.5C 312.192,331.924 312.526,334.257 313.5,336.5C 314.182,335.757 314.849,335.091 315.5,334.5C 316.602,331.279 317.268,327.279 317.5,322.5C 318.302,323.952 318.802,325.618 319,327.5C 319.807,323.551 320.307,323.551 320.5,327.5C 322.288,327.215 323.955,327.548 325.5,328.5C 324.975,329.192 324.308,329.692 323.5,330C 325.5,330.667 327.5,330.667 329.5,330C 328.692,329.692 328.025,329.192 327.5,328.5C 328.274,327.289 329.107,327.289 330,328.5C 330.359,325.456 331.026,325.122 332,327.5C 332.377,326.058 333.21,325.058 334.5,324.5C 334.5,328.833 334.5,333.167 334.5,337.5C 335.833,337.5 337.167,337.5 338.5,337.5C 338.281,338.675 338.614,339.675 339.5,340.5C 340.83,338.653 340.497,337.153 338.5,336C 340.057,332.981 341.057,329.814 341.5,326.5C 342.181,329.731 342.348,333.064 342,336.5C 343.388,337.554 344.888,337.72 346.5,337C 345.672,336.085 344.672,335.419 343.5,335C 345.774,332.656 346.941,329.822 347,326.5C 347.956,327.579 348.789,328.745 349.5,330C 350.935,329.689 352.268,329.855 353.5,330.5C 354.648,328.851 355.981,327.351 357.5,326C 355.627,325.047 355.294,323.88 356.5,322.5C 356.833,322.5 357.167,322.5 357.5,322.5C 357.369,323.239 357.536,323.906 358,324.5C 359.388,323.264 360.554,321.931 361.5,320.5C 363.315,319.37 365.315,318.704 367.5,318.5C 367.34,316.801 367.506,315.134 368,313.5C 369.984,310.084 371.65,306.417 373,302.5C 373.374,303.416 373.874,304.25 374.5,305C 374.342,308.288 374.342,311.788 374.5,315.5 Z"/></g>
<g><path style="opacity:1" fill="#45167d" d="M 261.5,329.5 C 263.167,330.5 264.5,331.833 265.5,333.5C 266.523,335.846 267.523,338.179 268.5,340.5C 270.912,340.244 272.579,341.244 273.5,343.5C 275.075,350.133 272.409,353.8 265.5,354.5C 265.675,356.621 265.341,358.621 264.5,360.5C 258.419,361.135 252.419,362.302 246.5,364C 243.763,365.614 241.597,367.781 240,370.5C 239.167,369.667 238.333,368.833 237.5,368C 237.64,366.736 237.64,365.569 237.5,364.5C 235.833,365.333 234.167,366.167 232.5,367C 233.451,367.718 233.617,368.551 233,369.5C 230.588,373.413 227.088,375.413 222.5,375.5C 225.624,371.538 228.958,367.705 232.5,364C 238.504,358.672 244.837,353.672 251.5,349C 254.832,346.511 257.166,343.344 258.5,339.5C 258.02,336.508 256.353,335.341 253.5,336C 242.963,346.039 232.297,355.873 221.5,365.5C 220.427,364.749 220.26,363.749 221,362.5C 223.879,355.956 228.713,351.456 235.5,349C 234.549,348.282 234.383,347.449 235,346.5C 237.372,344.297 239.539,341.963 241.5,339.5C 242.167,338.167 243.167,337.167 244.5,336.5C 248.906,334.629 252.573,331.796 255.5,328C 257.519,328.152 259.519,328.652 261.5,329.5 Z"/></g>
<g><path style="opacity:1" fill="#825ea3" d="M 230.5,339.5 C 231.552,339.351 232.552,339.517 233.5,340C 231.833,341.667 230.167,343.333 228.5,345C 200.664,345.83 172.997,345.664 145.5,344.5C 172.833,344.5 200.167,344.5 227.5,344.5C 227.5,343.167 227.5,341.833 227.5,340.5C 228.791,340.737 229.791,340.404 230.5,339.5 Z"/></g>
<g><path style="opacity:1" fill="#442c6d" d="M 301.5,342.5 C 308.946,342.63 316.279,343.63 323.5,345.5C 329.47,344.504 335.47,343.837 341.5,343.5C 339.524,345.011 337.191,345.844 334.5,346C 325.121,346.816 315.787,346.483 306.5,345C 304.685,344.243 303.019,343.41 301.5,342.5 Z"/></g>
<g><path style="opacity:1" fill="#5a3c7d" d="M 265.5,333.5 C 270.186,337.186 274.186,341.52 277.5,346.5C 274.176,352.155 269.843,356.822 264.5,360.5C 265.341,358.621 265.675,356.621 265.5,354.5C 272.409,353.8 275.075,350.133 273.5,343.5C 272.579,341.244 270.912,340.244 268.5,340.5C 267.523,338.179 266.523,335.846 265.5,333.5 Z"/></g>
<g><path style="opacity:1" fill="#5c239d" d="M 222.5,375.5 C 219.122,379.616 216.122,379.449 213.5,375C 213.667,374.167 213.833,373.333 214,372.5C 216.946,370.569 219.446,368.236 221.5,365.5C 232.297,355.873 242.963,346.039 253.5,336C 256.353,335.341 258.02,336.508 258.5,339.5C 257.166,343.344 254.832,346.511 251.5,349C 244.837,353.672 238.504,358.672 232.5,364C 228.958,367.705 225.624,371.538 222.5,375.5 Z"/></g>
<g><path style="opacity:1" fill="#3c1771" d="M 241.5,339.5 C 239.539,341.963 237.372,344.297 235,346.5C 234.383,347.449 234.549,348.282 235.5,349C 228.713,351.456 223.879,355.956 221,362.5C 220.26,363.749 220.427,364.749 221.5,365.5C 219.446,368.236 216.946,370.569 214,372.5C 213.833,373.333 213.667,374.167 213.5,375C 216.122,379.449 219.122,379.616 222.5,375.5C 227.088,375.413 230.588,373.413 233,369.5C 233.617,368.551 233.451,367.718 232.5,367C 234.167,366.167 235.833,365.333 237.5,364.5C 237.64,365.569 237.64,366.736 237.5,368C 238.333,368.833 239.167,369.667 240,370.5C 241.597,367.781 243.763,365.614 246.5,364C 252.419,362.302 258.419,361.135 264.5,360.5C 260.812,365.521 256.479,369.854 251.5,373.5C 248.398,375.596 245.064,377.262 241.5,378.5C 241.5,380.167 241.5,381.833 241.5,383.5C 239.146,383.838 236.813,384.338 234.5,385C 235.337,386.011 235.67,387.178 235.5,388.5C 234.448,388.351 233.448,388.517 232.5,389C 233.252,389.671 233.586,390.504 233.5,391.5C 231.874,394.622 229.208,396.288 225.5,396.5C 222.652,395.228 219.652,394.395 216.5,394C 214.167,393 212.5,391.333 211.5,389C 210.552,388.517 209.552,388.351 208.5,388.5C 208.5,387.167 208.5,385.833 208.5,384.5C 207.5,384.5 206.5,384.5 205.5,384.5C 205.5,380.5 205.5,376.5 205.5,372.5C 206.882,369.606 208.882,367.106 211.5,365C 221.392,356.267 231.392,347.767 241.5,339.5 Z"/></g>
<g><path style="opacity:1" fill="#5e4480" d="M 251.5,373.5 C 246.167,380.167 240.167,386.167 233.5,391.5C 233.586,390.504 233.252,389.671 232.5,389C 233.448,388.517 234.448,388.351 235.5,388.5C 235.67,387.178 235.337,386.011 234.5,385C 236.813,384.338 239.146,383.838 241.5,383.5C 241.5,381.833 241.5,380.167 241.5,378.5C 245.064,377.262 248.398,375.596 251.5,373.5 Z"/></g>
<g><path style="opacity:1" fill="#583e7a" d="M 205.5,372.5 C 205.5,376.5 205.5,380.5 205.5,384.5C 206.5,384.5 207.5,384.5 208.5,384.5C 208.5,385.833 208.5,387.167 208.5,388.5C 209.552,388.351 210.552,388.517 211.5,389C 212.5,391.333 214.167,393 216.5,394C 219.652,394.395 222.652,395.228 225.5,396.5C 216.617,397.902 209.784,394.569 205,386.5C 202.884,381.621 203.05,376.954 205.5,372.5 Z"/></g>
</svg>
